<svg xmlns="http://www.w3.org/2000/svg" xmlns:xlink="http://www.w3.org/1999/xlink" viewBox="0 0 128 128"><defs><style>.cls-1{fill:url(#Безымянный_градиент_81);}.cls-2{fill:#fcac19;}.cls-3{fill:url(#linear-gradient);}.cls-4{fill:#fff;}.cls-5{fill:#ecac00;}.cls-6{fill:#bfc9e6;}.cls-7{fill:#dadbdc;}.cls-8{fill:url(#linear-gradient-2);}.cls-9{fill:url(#linear-gradient-3);}.cls-10{fill:url(#linear-gradient-4);}.cls-11{fill:url(#linear-gradient-5);}</style><linearGradient id="Безымянный_градиент_81" y1="64" x2="126.78" y2="64" gradientUnits="userSpaceOnUse"><stop offset="0" stop-color="#fdb718"/><stop offset="1" stop-color="#f99b1c"/></linearGradient><linearGradient id="linear-gradient" x1="126.16" y1="125.5" x2="1.48" y2="2.14" gradientUnits="userSpaceOnUse"><stop offset="0.1" stop-color="#1b59e3"/><stop offset="1" stop-color="#4885e3"/></linearGradient><linearGradient id="linear-gradient-2" x1="17.63" y1="54.02" x2="73.46" y2="105.43" gradientTransform="translate(0.3 -0.17) rotate(0.22)" gradientUnits="userSpaceOnUse"><stop offset="0" stop-color="#1371f0"/><stop offset="0.07" stop-color="#247cf0"/><stop offset="0.25" stop-color="#5097f0"/><stop offset="0.34" stop-color="#61a2f0"/><stop offset="0.41" stop-color="#6998f0"/><stop offset="0.53" stop-color="#7e7ef0"/><stop offset="0.63" stop-color="#9364f0"/><stop offset="0.88" stop-color="#6a6cf0"/></linearGradient><linearGradient id="linear-gradient-3" x1="31.23" y1="39.25" x2="87.06" y2="90.65" gradientTransform="translate(0.2 -0.17) rotate(0.22)" xlink:href="#linear-gradient-2"/><linearGradient id="linear-gradient-4" x1="49.22" y1="19.71" x2="105.05" y2="71.12" gradientTransform="translate(126.11 -32.06) rotate(89.78)" xlink:href="#linear-gradient-2"/><linearGradient id="linear-gradient-5" x1="35.53" y1="34.59" x2="91.36" y2="85.99" gradientTransform="translate(153.4 -4.67) rotate(89.78)" xlink:href="#linear-gradient-2"/></defs><g id="Layer_2" data-name="Layer 2"><g id="Layer_1-2" data-name="Layer 1"><rect class="cls-1" width="128" height="128" rx="6.79"/><rect class="cls-1" width="128" height="128" rx="6.79"/><rect class="cls-2" width="128" height="128" rx="6.79"/><rect class="cls-3" width="128" height="128" rx="6.79"/><rect class="cls-4" x="26.47" y="17.18" width="80.53" height="98.12" rx="2.06"/><rect class="cls-4" x="26.47" y="17.18" width="80.53" height="98.12" rx="2.06"/><rect class="cls-5" x="26.47" y="17.18" width="80.53" height="98.12" rx="2.06"/><rect class="cls-6" x="26.47" y="17.18" width="80.53" height="98.12" rx="2.06"/><path class="cls-4" d="M99.68,109.9l-76,.28a2.26,2.26,0,0,1-2.27-2.25L21,14.33a2.27,2.27,0,0,1,2.25-2.27l76-.29A2.28,2.28,0,0,1,101.54,14l.4,93.59A2.28,2.28,0,0,1,99.68,109.9Z"/><path class="cls-4" d="M99.68,109.9l-76,.28a2.26,2.26,0,0,1-2.27-2.25L21,14.33a2.27,2.27,0,0,1,2.25-2.27l76-.29A2.28,2.28,0,0,1,101.54,14l.4,93.59A2.28,2.28,0,0,1,99.68,109.9Z"/><path class="cls-4" d="M99.68,109.9l-76,.28a2.26,2.26,0,0,1-2.27-2.25L21,14.33a2.27,2.27,0,0,1,2.25-2.27l76-.29A2.28,2.28,0,0,1,101.54,14l.4,93.59A2.28,2.28,0,0,1,99.68,109.9Z"/><rect class="cls-7" x="45.06" y="19" width="40.9" height="4.95" rx="1.23" transform="translate(-0.08 0.25) rotate(-0.22)"/><rect class="cls-7" x="45.09" y="25.32" width="22.17" height="4.95" rx="1.23" transform="translate(-0.1 0.21) rotate(-0.22)"/><path class="cls-7" d="M42.54,24.77a6.69,6.69,0,1,1-6.72-6.67A6.69,6.69,0,0,1,42.54,24.77Z"/><rect class="cls-8" x="30.1" y="70" width="30.09" height="18.71" rx="1.64" transform="translate(-0.3 0.17) rotate(-0.22)"/><rect class="cls-9" x="30" y="37.9" width="30.09" height="28.12" rx="1.64" transform="translate(-0.2 0.17) rotate(-0.22)"/><rect class="cls-10" x="69.79" y="32.22" width="18.71" height="30.09" rx="1.64" transform="translate(31.59 126.23) rotate(-89.78)"/><rect class="cls-11" x="64.98" y="59.61" width="28.12" height="30.09" rx="1.64" transform="translate(4.09 153.41) rotate(-89.78)"/><path class="cls-7" d="M42.89,100.24v.48c-.12,1-.32,2-.47,2.94a2.72,2.72,0,0,1-.21.79,1.92,1.92,0,0,1-1.77,1.1c-.36,0-.72,0-1.08,0a12.13,12.13,0,0,1-3.69-.6c-.2-.06-.38-.14-.57-.21a.23.23,0,0,1-.15-.24c0-.78,0-1.56,0-2.34,0-1.09,0-2.18,0-3.27a.33.33,0,0,1,.16-.33,5.12,5.12,0,0,0,1.11-1A3,3,0,0,0,36.74,96a5.12,5.12,0,0,1,.15-.78.56.56,0,0,1,.71-.49A1.76,1.76,0,0,1,39,96.05a3.88,3.88,0,0,1,0,1.4,4.05,4.05,0,0,1-.24,1c0,.12,0,.12.09.12H41a2,2,0,0,1,1.84,1.4C42.87,100,42.87,100.14,42.89,100.24Z"/><path class="cls-7" d="M31.37,101.83c0-.9,0-1.8,0-2.69a.87.87,0,0,1,.91-.91c.36,0,.73,0,1.09,0a.84.84,0,0,1,.89.89c0,1.81,0,3.62,0,5.43a.84.84,0,0,1-.88.89H32.27a.84.84,0,0,1-.89-.88C31.38,103.64,31.37,102.73,31.37,101.83Z"/><path class="cls-7" d="M62,99.15c0,2.47-2.76,4.48-6.19,4.49s-6.21-2-6.22-4.44,2.76-4.47,6.19-4.49S62,96.69,62,99.15Z"/><path class="cls-7" d="M50.07,104.84,51.4,101a.44.44,0,0,1,.63-.25L55,102.37a.45.45,0,0,1,0,.79l-4.28,2.22A.44.44,0,0,1,50.07,104.84Z"/></g></g></svg>