<svg xmlns="http://www.w3.org/2000/svg" viewBox="0 0 58.7 51.24"><defs><style>.cls-1,.cls-3{fill:#fff;}.cls-2{fill:#d1d3d4;}.cls-3{stroke:#dadbdc;stroke-miterlimit:10;}</style></defs><g id="Layer_2" data-name="Layer 2"><g id="Слой_1" data-name="Слой 1"><rect class="cls-1" x="0.5" y="12.21" width="36.97" height="38.53" rx="2.58"/><path class="cls-2" d="M34.89,12.71A2.08,2.08,0,0,1,37,14.79V48.15a2.09,2.09,0,0,1-2.08,2.09H3.08A2.09,2.09,0,0,1,1,48.15V14.79a2.08,2.08,0,0,1,2.08-2.08H34.89m0-1H3.08A3.08,3.08,0,0,0,0,14.79V48.15a3.09,3.09,0,0,0,3.08,3.09H34.89A3.09,3.09,0,0,0,38,48.15V14.79a3.08,3.08,0,0,0-3.08-3.08Z"/><rect class="cls-2" x="2.57" y="14.28" width="32.82" height="34.38" rx="1.93"/><rect class="cls-2" x="0.01" width="58.7" height="8.62" rx="1.57"/><rect class="cls-2" x="41.14" y="13.23" width="17.57" height="2.2" rx="0.67"/><rect class="cls-2" x="41.14" y="20.12" width="17.57" height="2.2" rx="0.68"/><rect class="cls-2" x="41.14" y="27.22" width="17.57" height="2.2" rx="0.64"/><rect class="cls-2" x="41.14" y="34.72" width="9" height="2.2" rx="0.46"/><ellipse class="cls-1" cx="25.26" cy="29.91" rx="4.22" ry="3.13" transform="translate(-9.68 12.25) rotate(-23.01)"/><ellipse class="cls-1" cx="14.81" cy="37.88" rx="4.22" ry="3.13" transform="translate(-24.35 26.9) rotate(-52.99)"/><ellipse class="cls-1" cx="22.97" cy="37.75" rx="3.12" ry="4.22" transform="translate(-18.12 21.5) rotate(-37.11)"/><ellipse class="cls-1" cx="11.98" cy="29.84" rx="3.13" ry="4.22" transform="translate(-20.16 30.55) rotate(-69.39)"/><ellipse class="cls-1" cx="18.72" cy="24.98" rx="3.13" ry="4.22"/><rect class="cls-3" x="15.28" y="28.8" width="7" height="7" rx="3.5"/></g></g></svg>