<svg xmlns="http://www.w3.org/2000/svg" viewBox="0 0 59.97 54.25"><defs><style>.cls-1{fill:#d1d3d4;}.cls-2{fill:#fff;}</style></defs><g id="Layer_2" data-name="Layer 2"><g id="Слой_1" data-name="Слой 1"><rect class="cls-1" x="1.06" width="58.7" height="8.62" rx="1.57"/><rect class="cls-1" x="1.06" y="14.38" width="58.47" height="2.2" rx="0.87"/><rect class="cls-1" x="1.06" y="20.84" width="31.1" height="2.2" rx="0.91"/><rect class="cls-2" x="0.5" y="28.22" width="58.97" height="25.53" rx="2.58"/><path class="cls-1" d="M56.89,28.72A2.09,2.09,0,0,1,59,30.81V51.17a2.09,2.09,0,0,1-2.08,2.08H3.08A2.09,2.09,0,0,1,1,51.17V30.81a2.09,2.09,0,0,1,2.08-2.09H56.89m0-1H3.08A3.09,3.09,0,0,0,0,30.81V51.17a3.08,3.08,0,0,0,3.08,3.08H56.89A3.08,3.08,0,0,0,60,51.17V30.81a3.09,3.09,0,0,0-3.08-3.09Z"/><rect class="cls-1" x="2.57" y="30.29" width="54.82" height="21.38" rx="1.93"/><rect class="cls-2" x="44.27" y="32.15" width="7" height="7" rx="3.5"/><path class="cls-2" d="M9,48.19l8.82-8.85a.38.38,0,0,1,.51,0l6.06,5.57a.38.38,0,0,0,.52,0L34.6,35a.38.38,0,0,1,.54,0L47.38,48.2a.33.33,0,0,1-.27.56H9.25A.34.34,0,0,1,9,48.19Z"/></g></g></svg>