<svg xmlns="http://www.w3.org/2000/svg" viewBox="0 0 150.03 49.62"><defs><style>.cls-1{fill:#303a48;}</style></defs><g id="Layer_2" data-name="Layer 2"><g id="Слой_1" data-name="Слой 1"><path class="cls-1" d="M53.82,13.64A4.62,4.62,0,0,0,50,15.35a7.34,7.34,0,0,0-1.38,4.73A7.35,7.35,0,0,0,50,24.85a4.71,4.71,0,0,0,3.85,1.61,10.39,10.39,0,0,0,2.1-.21c.68-.15,1.39-.33,2.13-.56v2.4a12.85,12.85,0,0,1-4.57.76,7.3,7.3,0,0,1-5.78-2.28q-2-2.28-2-6.52a10.53,10.53,0,0,1,1-4.67,7,7,0,0,1,2.83-3.07,8.58,8.58,0,0,1,4.35-1.07,10.83,10.83,0,0,1,4.85,1.1l-1,2.33A16.58,16.58,0,0,0,55.85,14,6.84,6.84,0,0,0,53.82,13.64Z"/><path class="cls-1" d="M72,22.11a7.06,7.06,0,0,1-1.63,5,5.82,5.82,0,0,1-4.53,1.78A6.16,6.16,0,0,1,62.61,28a5.39,5.39,0,0,1-2.15-2.35,8,8,0,0,1-.75-3.57,7,7,0,0,1,1.62-4.92,5.87,5.87,0,0,1,4.56-1.77,5.73,5.73,0,0,1,4.45,1.81A7,7,0,0,1,72,22.11Zm-9.43,0c0,3,1.1,4.49,3.31,4.49s3.28-1.49,3.28-4.49-1.1-4.44-3.3-4.44a2.82,2.82,0,0,0-2.51,1.15A5.86,5.86,0,0,0,62.55,22.11Z"/><path class="cls-1" d="M85.11,28.62H82.34v-8a3.62,3.62,0,0,0-.56-2.22A2.08,2.08,0,0,0,80,17.67a2.7,2.7,0,0,0-2.34,1,6.13,6.13,0,0,0-.74,3.45v6.46H74.18v-13h2.16l.39,1.7h.14a3.55,3.55,0,0,1,1.56-1.43,5,5,0,0,1,2.26-.51q3,0,4,2h.19A4,4,0,0,1,86.45,16a5.16,5.16,0,0,1,2.39-.54,4.35,4.35,0,0,1,3.39,1.18,5.21,5.21,0,0,1,1.06,3.57v8.45H90.53v-8A3.55,3.55,0,0,0,90,18.41a2.08,2.08,0,0,0-1.76-.74,2.74,2.74,0,0,0-2.35,1,5.11,5.11,0,0,0-.74,3.07Z"/><path class="cls-1" d="M102.74,28.85a4.54,4.54,0,0,1-3.82-1.77h-.16c.11,1.1.16,1.76.16,2v5.3H96.17V15.66H98.4c.06.24.19.82.38,1.73h.14a4.32,4.32,0,0,1,3.87-2,4.5,4.5,0,0,1,3.78,1.76,7.94,7.94,0,0,1,1.35,4.93,8,8,0,0,1-1.37,5A4.54,4.54,0,0,1,102.74,28.85Zm-.66-11.18a2.86,2.86,0,0,0-2.4,1,5,5,0,0,0-.76,3.07v.41a6.05,6.05,0,0,0,.75,3.43,2.79,2.79,0,0,0,2.45,1.06,2.5,2.5,0,0,0,2.21-1.17,6.09,6.09,0,0,0,.77-3.34,5.87,5.87,0,0,0-.77-3.3A2.57,2.57,0,0,0,102.08,17.67Z"/><path class="cls-1" d="M108.19,15.66h3L113.83,23a14.2,14.2,0,0,1,.8,2.95h.09a12.24,12.24,0,0,1,.39-1.57q.28-.91,3-8.73h3l-5.54,14.68c-1,2.7-2.69,4-5,4a8.09,8.09,0,0,1-1.78-.19V32a6.63,6.63,0,0,0,1.42.14c1.32,0,2.26-.77,2.8-2.31l.48-1.22Z"/><path class="cls-1" d="M129.37,19.33h6.31v8.6a19.09,19.09,0,0,1-3,.71,21,21,0,0,1-3.07.21,7.69,7.69,0,0,1-6-2.3,9.25,9.25,0,0,1-2.11-6.5,8.64,8.64,0,0,1,2.38-6.47,8.93,8.93,0,0,1,6.55-2.34,12.68,12.68,0,0,1,5.08,1l-1,2.33a9.9,9.9,0,0,0-4.17-1A5.66,5.66,0,0,0,126,15.36a6.69,6.69,0,0,0-1.59,4.72,7.06,7.06,0,0,0,1.43,4.77A5.23,5.23,0,0,0,130,26.49a14,14,0,0,0,2.9-.34V21.73h-3.55Z"/><path class="cls-1" d="M150,22.11a7.06,7.06,0,0,1-1.63,5,5.8,5.8,0,0,1-4.53,1.78,6.18,6.18,0,0,1-3.21-.82,5.39,5.39,0,0,1-2.15-2.35,8,8,0,0,1-.75-3.57,7,7,0,0,1,1.62-4.92,5.87,5.87,0,0,1,4.56-1.77,5.73,5.73,0,0,1,4.45,1.81A7,7,0,0,1,150,22.11Zm-9.43,0c0,3,1.1,4.49,3.31,4.49s3.29-1.49,3.29-4.49-1.11-4.44-3.31-4.44a2.83,2.83,0,0,0-2.51,1.15A5.86,5.86,0,0,0,140.6,22.11Z"/><path class="cls-1" d="M25.8,25.78a10.87,10.87,0,1,1-.31-15.63L30.61,5a18.1,18.1,0,1,0-12.5,31.19A18,18,0,0,0,30.92,30.9Z"/><rect class="cls-1" x="13.13" y="24.63" width="28.91" height="5.96" transform="translate(27.6 -11.42) rotate(45)"/><rect class="cls-1" x="19.97" y="41.18" width="9.68" height="5.88" transform="translate(38.47 -4.62) rotate(45)"/><rect class="cls-1" x="25.08" y="36.16" width="15.07" height="5.83" transform="translate(-18.08 34.51) rotate(-45)"/></g></g></svg>