<svg xmlns="http://www.w3.org/2000/svg" viewBox="0 0 95.66 85"><defs><style>.cls-1{fill:#3582c4;}</style></defs><g id="Layer_2" data-name="Layer 2"><g id="Layer_2-2" data-name="Layer 2"><path class="cls-1" d="M95.66,85a108.29,108.29,0,0,1-28.37-3.72A92,92,0,0,1,40.77,69.75a74.39,74.39,0,0,1-11.51-9.1c-.93-.81-1.71-1.76-2.58-2.64l-1.27-1.35c-.42-.45-.79-.95-1.19-1.42-.78-1-1.59-1.9-2.34-2.88l-2.15-3A82.73,82.73,0,0,1,8,22.15l7.42-1.51L16.08,24c.24,1.12.42,2.26.75,3.34.61,2.2,1.16,4.42,2,6.54a67.73,67.73,0,0,0,5.71,12.42A68.86,68.86,0,0,0,42.93,66.64a88.81,88.81,0,0,0,24.9,12.82A107.31,107.31,0,0,0,95.66,85Z"/><polygon class="cls-1" points="26.49 29.89 12.6 25.77 0 32.91 9.66 0 26.49 29.89"/></g></g></svg>