<svg xmlns="http://www.w3.org/2000/svg" viewBox="0 0 57.2 41.9"><defs><style>.cls-1{fill:#d1d3d4;}</style></defs><g id="Layer_2" data-name="Layer 2"><g id="Слой_1" data-name="Слой 1"><path class="cls-1" d="M13.81,16.44l-5-3.57a.24.24,0,0,0-.27,0L3.64,16.5a.23.23,0,0,1-.35-.26l1.86-5.82a.24.24,0,0,0-.09-.26L.1,6.59a.23.23,0,0,1,.13-.41l6.11,0A.25.25,0,0,0,6.56,6L8.42.16a.23.23,0,0,1,.44,0L10.78,6a.22.22,0,0,0,.21.16l6.12,0a.23.23,0,0,1,.14.41l-4.93,3.62a.23.23,0,0,0-.08.26l1.92,5.81A.23.23,0,0,1,13.81,16.44Z"/><path class="cls-1" d="M33.42,16.44l-5-3.57a.24.24,0,0,0-.27,0L23.25,16.5a.23.23,0,0,1-.35-.26l1.86-5.82a.23.23,0,0,0-.08-.26l-5-3.57a.23.23,0,0,1,.13-.41l6.12,0A.24.24,0,0,0,26.17,6L28,.16a.23.23,0,0,1,.44,0L30.39,6a.22.22,0,0,0,.22.16l6.11,0a.23.23,0,0,1,.14.41l-4.93,3.62a.23.23,0,0,0-.08.26l1.92,5.81A.23.23,0,0,1,33.42,16.44Z"/><path class="cls-1" d="M53.66,16.44l-5-3.57a.24.24,0,0,0-.27,0L43.5,16.5a.23.23,0,0,1-.35-.26L45,10.42a.24.24,0,0,0-.09-.26L40,6.59a.23.23,0,0,1,.14-.41l6.11,0A.25.25,0,0,0,46.42,6L48.28.16a.23.23,0,0,1,.43,0L50.63,6a.23.23,0,0,0,.22.16l6.12,0a.23.23,0,0,1,.14.41l-4.93,3.62a.22.22,0,0,0-.08.26L54,16.19A.23.23,0,0,1,53.66,16.44Z"/><rect class="cls-1" x="11" y="23.8" width="35.2" height="3.77" rx="0.62"/><rect class="cls-1" x="17" y="30.88" width="23.2" height="3.77" rx="0.62"/><rect class="cls-1" x="23" y="38.13" width="11.2" height="3.77" rx="0.62"/></g></g></svg>