<svg xmlns="http://www.w3.org/2000/svg" viewBox="0 0 50.97 40.53"><defs><style>.cls-1{fill:#fff;}.cls-2{fill:#dadbdc;}.cls-3{fill:#d1d3d4;}</style></defs><g id="Layer_2" data-name="Layer 2"><g id="Слой_1" data-name="Слой 1"><rect class="cls-1" x="0.5" y="0.5" width="49.97" height="39.53" rx="2.58"/><path class="cls-2" d="M47.89,1A2.09,2.09,0,0,1,50,3.08V37.44a2.09,2.09,0,0,1-2.08,2.09H3.08A2.09,2.09,0,0,1,1,37.44V3.08A2.09,2.09,0,0,1,3.08,1H47.89m0-1H3.08A3.08,3.08,0,0,0,0,3.08V37.44a3.09,3.09,0,0,0,3.08,3.09H47.89A3.09,3.09,0,0,0,51,37.44V3.08A3.08,3.08,0,0,0,47.89,0Z"/><rect class="cls-3" x="2.57" y="2.57" width="45.82" height="35.38" rx="1.93"/><rect class="cls-1" x="35.07" y="10.06" width="4.9" height="5.22" rx="2.45"/><path class="cls-1" d="M10.38,30.68l7.34-9.3a.2.2,0,0,1,.31,0l5,5.77a.19.19,0,0,0,.3,0l7.92-10.2a.2.2,0,0,1,.31,0L41.62,30.68a.2.2,0,0,1-.16.32H10.53A.2.2,0,0,1,10.38,30.68Z"/></g></g></svg>