<svg xmlns="http://www.w3.org/2000/svg" viewBox="0 0 90.12 23"><defs><style>.cls-1,.cls-2{fill:none;stroke:#000;}.cls-1{stroke-miterlimit:10;}.cls-2{stroke-linejoin:round;}</style></defs><g id="Layer_2" data-name="Layer 2"><g id="Layer_1-2" data-name="Layer 1"><path d="M8.21,19.21a.91.91,0,0,1-.66-.27L.27,11.66a.93.93,0,0,1,0-1.31l.86-.86a.92.92,0,0,1,1.32,0l5.76,5.76L14,9.49a.92.92,0,0,1,1.32,0l.86.86a.93.93,0,0,1,0,1.31L8.87,18.94A.91.91,0,0,1,8.21,19.21Z"/><path class="cls-1" d="M25.85,9.27h-4a1.43,1.43,0,0,0-1.43,1.42v8a1.21,1.21,0,0,0,1.21,1.21h4.24a1.21,1.21,0,0,0,1.21-1.21V9.27Z"/><path class="cls-2" d="M27.06,10.32,28.23,10,31,4.13v-3S32,.4,32.43.51a3.66,3.66,0,0,1,2.22,3,14,14,0,0,1-.82,4H40a2.13,2.13,0,0,1,1.75,2,1.71,1.71,0,0,1-.94,1.4,1.79,1.79,0,0,1,.94,1.52c0,1.05-1.4,1.52-1.4,1.52s.75.9.46,1.63a1.4,1.4,0,0,1-1.4,1.05,1.13,1.13,0,0,1,.47,1.64c-.38.75-.7,1-1.87,1H29.86a14.16,14.16,0,0,1-2.69-.7Z"/><path class="cls-2" d="M63.19,19.63H55.32L51.85,22.5l-1.23-2.87H48.17a1.91,1.91,0,0,1-1.91-1.9V8.14a1.92,1.92,0,0,1,1.91-1.91h15A1.92,1.92,0,0,1,65.1,8.14v9.59A1.91,1.91,0,0,1,63.19,19.63Z"/><path class="cls-2" d="M89.62,11.68,81.36,3.42V8.17s-12.25,0-12.25,11.68C73.78,15.18,81.36,14,81.36,14v5.92Z"/></g></g></svg>