<svg xmlns="http://www.w3.org/2000/svg" viewBox="0 0 59.5 52.53"><defs><style>.cls-1{fill:#dadbdc;}.cls-2,.cls-4{fill:#fff;}.cls-3{fill:#d1d3d4;}.cls-4{stroke:#dadbdc;stroke-miterlimit:10;}</style></defs><g id="Layer_2" data-name="Layer 2"><g id="Слой_1" data-name="Слой 1"><rect class="cls-1" x="25.2" y="0.71" width="33.47" height="51.33" rx="1.9"/><rect class="cls-2" x="25.03" y="0.5" width="33.97" height="51.53" rx="2.58"/><path class="cls-3" d="M56.42,1A2.09,2.09,0,0,1,58.5,3.08V49.44a2.09,2.09,0,0,1-2.08,2.09H27.61a2.09,2.09,0,0,1-2.08-2.09V3.08A2.09,2.09,0,0,1,27.61,1H56.42m0-1H27.61a3.08,3.08,0,0,0-3.08,3.08V49.44a3.09,3.09,0,0,0,3.08,3.09H56.42a3.09,3.09,0,0,0,3.08-3.09V3.08A3.08,3.08,0,0,0,56.42,0Z"/><rect class="cls-3" x="27.1" y="2.57" width="29.82" height="47.38" rx="1.93"/><ellipse class="cls-2" cx="48.81" cy="24.99" rx="4.22" ry="3.12" transform="translate(-5.88 21.06) rotate(-23.01)"/><ellipse class="cls-2" cx="38.36" cy="32.96" rx="4.22" ry="3.13" transform="translate(-11.05 43.75) rotate(-52.99)"/><ellipse class="cls-2" cx="46.53" cy="32.82" rx="3.12" ry="4.22" transform="translate(-10.38 34.71) rotate(-37.11)"/><ellipse class="cls-2" cx="35.54" cy="24.91" rx="3.13" ry="4.22" transform="translate(-0.29 49.41) rotate(-69.39)"/><ellipse class="cls-2" cx="42.27" cy="20.05" rx="3.13" ry="4.22"/><rect class="cls-4" x="38.83" y="23.87" width="7" height="7" rx="3.5"/><rect class="cls-3" y="0.46" width="20.23" height="8.62" rx="0.87"/><rect class="cls-3" y="13.69" width="20.57" height="2.2" rx="0.67"/><rect class="cls-3" y="20.58" width="20.57" height="2.2" rx="0.68"/><rect class="cls-3" y="27.67" width="20.57" height="2.2" rx="0.64"/><rect class="cls-3" y="35.17" width="12" height="2.2" rx="0.46"/></g></g></svg>