<svg xmlns="http://www.w3.org/2000/svg" viewBox="0 0 59.97 52.68"><defs><style>.cls-1{fill:#d1d3d4;}.cls-2{fill:#fff;}</style></defs><g id="Layer_2" data-name="Layer 2"><g id="Слой_1" data-name="Слой 1"><rect class="cls-1" x="0.98" y="30.14" width="58.7" height="8.62" rx="1.57"/><rect class="cls-1" x="1.09" y="44.02" width="58.47" height="2.2" rx="0.87"/><rect class="cls-1" x="1.09" y="50.48" width="31.1" height="2.2" rx="0.91"/><rect class="cls-2" x="0.5" y="0.5" width="58.97" height="25.53" rx="2.58"/><path class="cls-1" d="M56.89,1A2.09,2.09,0,0,1,59,3.08V23.44a2.09,2.09,0,0,1-2.08,2.09H3.08A2.09,2.09,0,0,1,1,23.44V3.08A2.09,2.09,0,0,1,3.08,1H56.89m0-1H3.08A3.08,3.08,0,0,0,0,3.08V23.44a3.09,3.09,0,0,0,3.08,3.09H56.89A3.09,3.09,0,0,0,60,23.44V3.08A3.08,3.08,0,0,0,56.89,0Z"/><rect class="cls-1" x="2.57" y="2.57" width="54.82" height="21.38" rx="1.93"/><rect class="cls-2" x="44.27" y="4.43" width="7" height="7" rx="3.5"/><path class="cls-2" d="M9,20.46l8.82-8.84a.37.37,0,0,1,.51,0l6.06,5.57a.37.37,0,0,0,.52,0L34.6,7.25a.38.38,0,0,1,.54,0L47.38,20.47a.34.34,0,0,1-.27.57H9.25A.35.35,0,0,1,9,20.46Z"/></g></g></svg>