<svg xmlns="http://www.w3.org/2000/svg" viewBox="0 0 59.97 51.38"><defs><style>.cls-1{fill:#d1d3d4;}.cls-2{fill:#fff;}</style></defs><g id="Layer_2" data-name="Layer 2"><g id="Слой_1" data-name="Слой 1"><rect class="cls-1" x="0.68" width="58.7" height="8.62" rx="1.57"/><rect class="cls-1" x="0.79" y="42.72" width="58.47" height="2.2" rx="0.87"/><rect class="cls-1" x="0.79" y="49.18" width="31.1" height="2.2" rx="0.91"/><rect class="cls-2" x="0.5" y="12.41" width="58.97" height="25.53" rx="2.58"/><path class="cls-1" d="M56.89,12.91A2.09,2.09,0,0,1,59,15V35.36a2.09,2.09,0,0,1-2.08,2.08H3.08A2.09,2.09,0,0,1,1,35.36V15a2.09,2.09,0,0,1,2.08-2.08H56.89m0-1H3.08A3.08,3.08,0,0,0,0,15V35.36a3.08,3.08,0,0,0,3.08,3.08H56.89A3.08,3.08,0,0,0,60,35.36V15a3.08,3.08,0,0,0-3.08-3.08Z"/><rect class="cls-1" x="2.57" y="14.48" width="54.82" height="21.38" rx="1.93"/><rect class="cls-2" x="44.27" y="16.34" width="7" height="7" rx="3.5"/><path class="cls-2" d="M9,32.38l8.82-8.85a.37.37,0,0,1,.51,0l6.06,5.57a.38.38,0,0,0,.52,0l9.71-9.92a.38.38,0,0,1,.54,0L47.38,32.38a.34.34,0,0,1-.27.57H9.25A.34.34,0,0,1,9,32.38Z"/></g></g></svg>