<svg xmlns="http://www.w3.org/2000/svg" viewBox="0 0 59.58 48.14"><defs><style>.cls-1{fill:#d1d3d4;}.cls-2{fill:#fff;}</style></defs><g id="Layer_2" data-name="Layer 2"><g id="Слой_1" data-name="Слой 1"><rect class="cls-1" x="2.06" y="2.81" width="42.46" height="32.94" rx="1.04" transform="translate(-2.59 3.65) rotate(-8.48)"/><path class="cls-2" d="M53.82,47.64H53.6L12.81,43.9A2.41,2.41,0,0,1,11.19,43a2.35,2.35,0,0,1-.55-1.76L13.5,10a2.42,2.42,0,0,1,2.39-2.19h.22L56.9,11.56a2.4,2.4,0,0,1,2.17,2.61L56.21,45.45A2.42,2.42,0,0,1,53.82,47.64Z"/><path class="cls-1" d="M15.89,8.32h.18l40.78,3.73a1.92,1.92,0,0,1,1.73,2.07L55.71,45.41a1.91,1.91,0,0,1-1.89,1.73h-.17L12.86,43.4a1.91,1.91,0,0,1-1.72-2.07L14,10.05a1.91,1.91,0,0,1,1.89-1.73m0-1h0A2.93,2.93,0,0,0,13,10L10.14,41.24a2.9,2.9,0,0,0,2.63,3.15l40.78,3.74h.27a2.93,2.93,0,0,0,2.89-2.64l2.86-31.28A2.91,2.91,0,0,0,57,11.06L16.16,7.33Z"/><rect class="cls-1" x="18.68" y="6.79" width="32.34" height="41.89" rx="1.76" transform="translate(4.07 59.91) rotate(-84.77)"/><rect class="cls-2" x="45.08" y="18.66" width="4.9" height="5.22" rx="2.45" transform="translate(2.14 -4.24) rotate(5.23)"/><path class="cls-2" d="M18.86,36.72,27,28.13a.2.2,0,0,1,.31,0l4.42,6.21a.2.2,0,0,0,.31,0l8.81-9.44a.19.19,0,0,1,.31,0L50,39.58a.19.19,0,0,1-.19.29L19,37.06A.2.2,0,0,1,18.86,36.72Z"/></g></g></svg>