<?xml version="1.0" encoding="utf-8"?>
<!-- Generator: Adobe Illustrator 24.1.2, SVG Export Plug-In . SVG Version: 6.00 Build 0)  -->
<svg version="1.1" id="Layer_1" xmlns="http://www.w3.org/2000/svg" xmlns:xlink="http://www.w3.org/1999/xlink" x="0px" y="0px"
	 viewBox="0 0 118.3 23" style="enable-background:new 0 0 118.3 23;" xml:space="preserve">
<style type="text/css">
	.st0{fill:none;stroke:#000000;stroke-miterlimit:10;}
	.st1{fill:none;stroke:#000000;stroke-linejoin:round;}
	.st2{fill:#FFFFFF;stroke:#000000;stroke-width:0.8693;stroke-miterlimit:10;}
	.st3{fill:#FFFFFF;stroke:#000000;stroke-width:0.7901;stroke-miterlimit:10;}
</style>
<g id="Layer_2_1_">
	<g id="Layer_1-2">
		<path d="M8.2,19.2c-0.2,0-0.5-0.1-0.7-0.3l-7.3-7.3c-0.4-0.4-0.4-0.9,0-1.3l0.9-0.9c0.4-0.4,0.9-0.4,1.3,0c0,0,0,0,0,0l5.8,5.8
			L14,9.5c0.4-0.4,0.9-0.4,1.3,0c0,0,0,0,0,0l0.9,0.9c0.4,0.4,0.4,0.9,0,1.3l-7.3,7.3C8.7,19.1,8.5,19.2,8.2,19.2z"/>
		<path class="st0" d="M25.9,9.3h-4c-0.8,0-1.4,0.6-1.4,1.4v8c0,0.7,0.5,1.2,1.2,1.2h0h4.2c0.7,0,1.2-0.5,1.2-1.2V9.3H25.9z"/>
		<path class="st1" d="M27.1,10.3l1.2-0.3L31,4.1v-3c0,0,1-0.7,1.4-0.6c1.2,0.5,2.1,1.7,2.2,3c-0.1,1.4-0.4,2.7-0.8,4H40
			c1,0.2,1.7,1,1.8,2c0,0.6-0.4,1.1-0.9,1.4c0.6,0.3,0.9,0.9,0.9,1.5c0,1.1-1.4,1.5-1.4,1.5s0.8,0.9,0.5,1.6c-0.2,0.6-0.7,1.1-1.4,1
			c0.6,0.3,0.8,0.9,0.5,1.5c0,0,0,0.1-0.1,0.1c-0.4,0.8-0.7,1-1.9,1h-8.1c-0.9-0.1-1.8-0.4-2.7-0.7L27.1,10.3z"/>
		<path class="st1" d="M63.2,19.6h-7.9l-3.5,2.9l-1.2-2.9h-2.5c-1.1,0-1.9-0.8-1.9-1.9V8.1c0-1.1,0.9-1.9,1.9-1.9h15
			c1.1,0,1.9,0.8,1.9,1.9c0,0,0,0,0,0v9.6C65.1,18.8,64.2,19.6,63.2,19.6z"/>
		<path class="st1" d="M89.6,11.7l-8.3-8.3v4.8c0,0-12.3,0-12.3,11.7c4.7-4.7,12.3-5.8,12.3-5.8v5.9L89.6,11.7z"/>
	</g>
</g>
<path class="st2" d="M115.9,11.7c0,0-5,6-11.1,6s-11.1-6-11.1-6s5-6,11.1-6S115.9,11.7,115.9,11.7z"/>
<circle class="st3" cx="104.8" cy="11.7" r="4.1"/>
</svg>
