<svg xmlns="http://www.w3.org/2000/svg" viewBox="0 0 150.03 49.62"><defs><style>.cls-1{fill:#a7a9ac;}.cls-2{fill:#3798ef;}</style></defs><g id="Layer_2" data-name="Layer 2"><g id="Слой_1" data-name="Слой 1"><path class="cls-1" d="M53.82,13.45A4.63,4.63,0,0,0,50,15.17a7.31,7.31,0,0,0-1.38,4.72A7.35,7.35,0,0,0,50,24.66a4.69,4.69,0,0,0,3.85,1.62,10.39,10.39,0,0,0,2.1-.22c.68-.15,1.39-.33,2.13-.56v2.4a12.84,12.84,0,0,1-4.57.77,7.3,7.3,0,0,1-5.78-2.28c-1.35-1.52-2-3.7-2-6.52a10.58,10.58,0,0,1,1-4.68,7,7,0,0,1,2.83-3.07,8.58,8.58,0,0,1,4.35-1.07,10.83,10.83,0,0,1,4.85,1.1l-1,2.34a13.39,13.39,0,0,0-1.83-.72A6.53,6.53,0,0,0,53.82,13.45Z"/><path class="cls-1" d="M72,21.93a7,7,0,0,1-1.63,4.95,5.82,5.82,0,0,1-4.53,1.79,6.25,6.25,0,0,1-3.21-.82,5.47,5.47,0,0,1-2.15-2.36,8,8,0,0,1-.75-3.56A7,7,0,0,1,61.33,17a5.87,5.87,0,0,1,4.56-1.77,5.69,5.69,0,0,1,4.45,1.81A7,7,0,0,1,72,21.93Zm-9.43,0q0,4.49,3.31,4.49t3.28-4.49q0-4.44-3.3-4.44a2.82,2.82,0,0,0-2.51,1.14A5.87,5.87,0,0,0,62.55,21.93Z"/><path class="cls-1" d="M85.11,28.43H82.34v-8a3.66,3.66,0,0,0-.56-2.22A2.08,2.08,0,0,0,80,17.49a2.69,2.69,0,0,0-2.34,1A6.15,6.15,0,0,0,76.94,22v6.46H74.18v-13h2.16l.39,1.7h.14a3.61,3.61,0,0,1,1.56-1.43,5,5,0,0,1,2.26-.5q3,0,4,2h.19a3.83,3.83,0,0,1,1.61-1.5,5.16,5.16,0,0,1,2.39-.54,4.38,4.38,0,0,1,3.39,1.17A5.21,5.21,0,0,1,93.29,20v8.45H90.53v-8A3.59,3.59,0,0,0,90,18.22a2.08,2.08,0,0,0-1.76-.73,2.73,2.73,0,0,0-2.35,1,5.13,5.13,0,0,0-.74,3.07Z"/><path class="cls-1" d="M102.74,28.67a4.54,4.54,0,0,1-3.82-1.77h-.16c.11,1.09.16,1.75.16,2V34.2H96.17V15.47H98.4c.06.24.19.82.38,1.73h.14a4.32,4.32,0,0,1,3.87-2A4.49,4.49,0,0,1,106.57,17a8,8,0,0,1,1.35,4.94,8,8,0,0,1-1.37,4.95A4.55,4.55,0,0,1,102.74,28.67Zm-.66-11.18a2.86,2.86,0,0,0-2.4,1,5,5,0,0,0-.76,3.07v.41a6.07,6.07,0,0,0,.75,3.43,2.81,2.81,0,0,0,2.45,1.06,2.48,2.48,0,0,0,2.21-1.18,6.09,6.09,0,0,0,.77-3.34,5.81,5.81,0,0,0-.77-3.29A2.54,2.54,0,0,0,102.08,17.49Z"/><path class="cls-1" d="M108.19,15.47h3l2.64,7.35a14.37,14.37,0,0,1,.8,2.95h.09a11.75,11.75,0,0,1,.39-1.56q.28-.93,3-8.74h3l-5.54,14.68q-1.51,4.05-5,4.05a8.09,8.09,0,0,1-1.78-.2V31.82a6.63,6.63,0,0,0,1.42.14c1.32,0,2.26-.77,2.8-2.31l.48-1.22Z"/><path class="cls-1" d="M129.37,19.14h6.31v8.6a18,18,0,0,1-3,.71,19.61,19.61,0,0,1-3.07.22,7.7,7.7,0,0,1-6-2.31,9.24,9.24,0,0,1-2.11-6.49,8.66,8.66,0,0,1,2.38-6.48,8.93,8.93,0,0,1,6.55-2.34,12.85,12.85,0,0,1,5.08,1l-1,2.34a9.91,9.91,0,0,0-4.17-1A5.63,5.63,0,0,0,126,15.18a6.68,6.68,0,0,0-1.59,4.71,7.06,7.06,0,0,0,1.43,4.77A5.23,5.23,0,0,0,130,26.3a13.34,13.34,0,0,0,2.9-.34V21.54h-3.55Z"/><path class="cls-1" d="M150,21.93a7,7,0,0,1-1.63,4.95,5.81,5.81,0,0,1-4.53,1.79,6.28,6.28,0,0,1-3.21-.82,5.47,5.47,0,0,1-2.15-2.36,8,8,0,0,1-.75-3.56A7,7,0,0,1,139.38,17a5.87,5.87,0,0,1,4.56-1.77,5.69,5.69,0,0,1,4.45,1.81A6.94,6.94,0,0,1,150,21.93Zm-9.43,0q0,4.49,3.31,4.49t3.29-4.49c0-3-1.11-4.44-3.31-4.44a2.83,2.83,0,0,0-2.51,1.14A5.87,5.87,0,0,0,140.6,21.93Z"/><path class="cls-2" d="M25.8,25.78a10.87,10.87,0,1,1-.31-15.63L30.61,5a18.1,18.1,0,1,0-12.5,31.19A18,18,0,0,0,30.92,30.9Z"/><rect class="cls-2" x="13.13" y="24.63" width="28.91" height="5.96" transform="translate(27.6 -11.42) rotate(45)"/><rect class="cls-2" x="19.97" y="41.18" width="9.68" height="5.88" transform="translate(38.47 -4.62) rotate(45)"/><rect class="cls-2" x="25.08" y="36.16" width="15.07" height="5.83" transform="translate(-18.08 34.51) rotate(-45)"/></g></g></svg>