<svg xmlns="http://www.w3.org/2000/svg" viewBox="0 0 59.7 52.53"><defs><style>.cls-1{fill:#d1d3d4;}.cls-2{fill:#dadbdc;}.cls-3,.cls-4{fill:#fff;}.cls-4{stroke:#dadbdc;stroke-miterlimit:10;}</style></defs><g id="Layer_2" data-name="Layer 2"><g id="Слой_1" data-name="Слой 1"><rect class="cls-1" x="39.14" y="0.46" width="20.23" height="8.62" rx="0.87"/><rect class="cls-2" x="0.67" y="0.71" width="33.47" height="51.33" rx="1.9"/><rect class="cls-1" x="39.14" y="13.69" width="20.57" height="2.2" rx="0.67"/><rect class="cls-1" x="39.14" y="20.58" width="20.57" height="2.2" rx="0.68"/><rect class="cls-1" x="39.14" y="27.67" width="20.57" height="2.2" rx="0.64"/><rect class="cls-1" x="39.14" y="35.17" width="12" height="2.2" rx="0.46"/><rect class="cls-3" x="0.5" y="0.5" width="33.97" height="51.53" rx="2.58"/><path class="cls-1" d="M31.89,1A2.09,2.09,0,0,1,34,3.08V49.44a2.09,2.09,0,0,1-2.08,2.09H3.08A2.09,2.09,0,0,1,1,49.44V3.08A2.09,2.09,0,0,1,3.08,1H31.89m0-1H3.08A3.08,3.08,0,0,0,0,3.08V49.44a3.09,3.09,0,0,0,3.08,3.09H31.89A3.09,3.09,0,0,0,35,49.44V3.08A3.08,3.08,0,0,0,31.89,0Z"/><rect class="cls-1" x="2.57" y="2.57" width="29.82" height="47.38" rx="1.93"/><ellipse class="cls-3" cx="24.28" cy="24.99" rx="4.22" ry="3.12" transform="matrix(0.92, -0.39, 0.39, 0.92, -7.84, 11.48)"/><ellipse class="cls-3" cx="13.83" cy="32.96" rx="4.22" ry="3.13" transform="translate(-20.81 24.17) rotate(-52.99)"/><ellipse class="cls-3" cx="22" cy="32.82" rx="3.13" ry="4.22" transform="translate(-15.35 19.92) rotate(-37.11)"/><ellipse class="cls-3" cx="11.01" cy="24.91" rx="3.13" ry="4.22" transform="translate(-16.19 26.45) rotate(-69.39)"/><ellipse class="cls-3" cx="17.74" cy="20.05" rx="3.13" ry="4.22"/><rect class="cls-4" x="14.3" y="23.87" width="7" height="7" rx="3.5"/></g></g></svg>