<svg xmlns="http://www.w3.org/2000/svg" viewBox="0 0 50.97 40.53"><defs><style>.cls-1{fill:#fff;}.cls-2{fill:#dadbdc;}.cls-3{fill:#d1d3d4;}</style></defs><g id="Layer_2" data-name="Layer 2"><g id="Слой_1" data-name="Слой 1"><rect class="cls-1" x="0.5" y="0.5" width="49.97" height="39.53" rx="2.58"/><path class="cls-2" d="M47.89,1A2.09,2.09,0,0,1,50,3.08V37.44a2.09,2.09,0,0,1-2.08,2.09H3.08A2.09,2.09,0,0,1,1,37.44V3.08A2.09,2.09,0,0,1,3.08,1H47.89m0-1H3.08A3.08,3.08,0,0,0,0,3.08V37.44a3.09,3.09,0,0,0,3.08,3.09H47.89A3.09,3.09,0,0,0,51,37.44V3.08A3.08,3.08,0,0,0,47.89,0Z"/><rect class="cls-3" x="2.57" y="2.57" width="45.82" height="35.38" rx="1.93"/><path class="cls-1" d="M19.5,20.21c0-1.89,0-3.78,0-5.67,0-1.15.64-1.51,1.63-.92,3.2,1.92,6.41,3.84,9.6,5.77,1,.58,1,1.17,0,1.75Q26,24,21.14,26.91c-1,.59-1.63.22-1.63-.94C19.5,24.05,19.5,22.13,19.5,20.21Z"/></g></g></svg>